<svg width="41" height="42" viewBox="0 0 41 42" fill="none" xmlns="http://www.w3.org/2000/svg">
<path d="M34.1344 12.1898H9.05494C8.72237 12.1898 8.40342 12.0577 8.16825 11.8226C7.93309 11.5874 7.80097 11.2684 7.80097 10.9359C7.80097 10.6033 7.93309 10.2843 8.16825 10.0492C8.40342 9.81401 8.72237 9.68189 9.05494 9.68189H30.3724C30.705 9.68189 31.024 9.54978 31.2591 9.31461C31.4943 9.07945 31.6264 8.76049 31.6264 8.42792C31.6264 8.09535 31.4943 7.7764 31.2591 7.54123C31.024 7.30606 30.705 7.17395 30.3724 7.17395H9.05494C8.05722 7.17395 7.10036 7.57029 6.39487 8.27579C5.68937 8.98128 5.29303 9.93814 5.29303 10.9359V30.9994C5.29303 31.9971 5.68937 32.954 6.39487 33.6595C7.10036 34.365 8.05722 34.7613 9.05494 34.7613H34.1344C34.7995 34.7613 35.4374 34.4971 35.9077 34.0268C36.3781 33.5564 36.6423 32.9185 36.6423 32.2534V14.6978C36.6423 14.0326 36.3781 13.3947 35.9077 12.9244C35.4374 12.4541 34.7995 12.1898 34.1344 12.1898ZM34.1344 32.2534H9.05494C8.72237 32.2534 8.40342 32.1213 8.16825 31.8861C7.93309 31.6509 7.80097 31.332 7.80097 30.9994V14.483C8.20361 14.6258 8.62775 14.6984 9.05494 14.6978H34.1344V32.2534ZM26.6105 22.8486C26.6105 22.4766 26.7209 22.1129 26.9275 21.8036C27.1342 21.4943 27.428 21.2532 27.7717 21.1108C28.1154 20.9684 28.4936 20.9312 28.8584 21.0038C29.2233 21.0764 29.5585 21.2555 29.8215 21.5186C30.0846 21.7816 30.2637 22.1168 30.3363 22.4816C30.4089 22.8465 30.3716 23.2247 30.2293 23.5684C30.0869 23.9121 29.8458 24.2059 29.5365 24.4125C29.2272 24.6192 28.8635 24.7295 28.4915 24.7295C27.9926 24.7295 27.5142 24.5314 27.1615 24.1786C26.8087 23.8259 26.6105 23.3474 26.6105 22.8486Z" fill="#89F7C2"/>
</svg>
